<svg width="19" height="19" viewBox="0 0 19 19" fill="none" xmlns="http://www.w3.org/2000/svg">
<path d="M5.42857 0C4.6779 0 4.07143 0.566042 4.07143 1.26667V2.53333H2.71429C1.21719 2.53333 0 3.66937 0 5.06667V6.96667H19V5.06667C19 3.66937 17.7828 2.53333 16.2857 2.53333H14.9286V1.26667C14.9286 0.566042 14.3221 0 13.5714 0C12.8208 0 12.2143 0.566042 12.2143 1.26667V2.53333H6.78571V1.26667C6.78571 0.566042 6.17924 0 5.42857 0ZM0 8.86667V16.4667C0 17.864 1.21719 19 2.71429 19H16.2857C17.7828 19 19 17.864 19 16.4667V8.86667H0Z" fill="#003027"/>
</svg>
