<svg width="30" height="30" viewBox="0 0 30 30" fill="none" xmlns="http://www.w3.org/2000/svg">
<path d="M20.0008 9.16592C20.0008 14.228 15.522 18.3318 10.0016 18.3318C8.61112 18.3318 7.28832 18.0714 6.08529 17.6027L1.83564 19.8525C1.3513 20.1077 0.7576 20.0192 0.367007 19.6338C-0.0235858 19.2484 -0.11212 18.6495 0.148275 18.1652L2.00229 14.6655C0.747185 13.1343 0.0024537 11.2282 0.0024537 9.16592C0.0024537 4.10383 4.48125 0 10.0016 0C15.522 0 20.0008 4.10383 20.0008 9.16592ZM20.0008 28.331C15.1002 28.331 11.0224 25.0969 10.1683 20.8316C16.4178 20.7535 21.8496 16.306 22.4485 10.2752C26.7867 11.2751 30 14.8738 30 19.1651C30 21.2274 29.2553 23.1335 28.0002 24.6646L29.8542 28.1644C30.1094 28.6487 30.0208 29.2424 29.6354 29.633C29.2501 30.0236 28.6512 30.1121 28.1668 29.8517L23.9172 27.6019C22.7141 28.0706 21.3913 28.331 20.0008 28.331Z" fill="white"/>
</svg>
