<svg width="25" height="30" viewBox="0 0 25 30" fill="none" xmlns="http://www.w3.org/2000/svg">
<path d="M7.62835 1.24432L7.14286 2.72727H1.78571C0.797991 2.72727 0 3.53977 0 4.54545C0 5.55114 0.797991 6.36364 1.78571 6.36364H23.2143C24.202 6.36364 25 5.55114 25 4.54545C25 3.53977 24.202 2.72727 23.2143 2.72727H17.8571L17.3717 1.24432C17.1261 0.5 16.4453 0 15.6752 0H9.32478C8.55469 0 7.87388 0.5 7.62835 1.24432ZM23.2143 9.09091H1.78571L2.96317 27.4489C3.05246 28.8864 4.22433 30 5.63616 30H19.3638C20.7757 30 21.9475 28.8864 22.0368 27.4489L23.2143 9.09091Z" fill="white"/>
</svg>
