<svg width="32" height="25" viewBox="0 0 32 25" fill="none" xmlns="http://www.w3.org/2000/svg">
<path d="M6.73684 3.33333C6.73684 1.49479 8.24737 0 10.1053 0H28.6316C30.4895 0 32 1.49479 32 3.33333V15.8333H26.9474V15C26.9474 14.0781 26.1947 13.3333 25.2632 13.3333H21.8947C20.9632 13.3333 20.2105 14.0781 20.2105 15V15.8333H13.4158C13.9895 14.8542 14.3158 13.7135 14.3158 12.5C14.3158 8.81771 11.3 5.83333 7.57895 5.83333C7.29474 5.83333 7.01053 5.84896 6.73684 5.88542V3.33333ZM17.5263 21.6667C17.2579 20.4062 16.6684 19.2656 15.8368 18.3333H32C32 20.1719 30.4895 21.6667 28.6316 21.6667H17.5263ZM3.36842 12.5C3.36842 10.1979 5.25263 8.33333 7.57895 8.33333C9.90526 8.33333 11.7895 10.1979 11.7895 12.5C11.7895 14.8021 9.90526 16.6667 7.57895 16.6667C5.25263 16.6667 3.36842 14.8021 3.36842 12.5ZM0 23.3333C0 20.5729 2.26316 18.3333 5.05263 18.3333H10.1053C12.8947 18.3333 15.1579 20.5729 15.1579 23.3333C15.1579 24.2552 14.4053 25 13.4737 25H1.68421C0.752632 25 0 24.2552 0 23.3333Z" fill="white"/>
</svg>
