<svg width="30" height="30" viewBox="0 0 30 30" fill="none" xmlns="http://www.w3.org/2000/svg">
<path d="M16.2746 0.501025C15.5538 -0.167009 14.4403 -0.167009 13.7254 0.501025L0.59807 12.6897C0.0354712 13.2171 -0.152062 14.0316 0.129238 14.7466C0.410537 15.4615 1.0962 15.9361 1.86978 15.9361H2.80744V26.2496C2.80744 28.3182 4.48937 30 6.5581 30H23.436C25.5048 30 27.1867 28.3182 27.1867 26.2496V15.9361H28.1244C28.8979 15.9361 29.5895 15.4615 29.8708 14.7466C30.1521 14.0316 29.9645 13.2113 29.4019 12.6897L16.2746 0.501025ZM14.0594 18.7489H15.9347C17.4877 18.7489 18.7477 20.0088 18.7477 21.5617V27.1872H11.2464V21.5617C11.2464 20.0088 12.5064 18.7489 14.0594 18.7489Z" fill="#ADADAD"/>
</svg>
