<svg width="30" height="26" viewBox="0 0 30 26" fill="none" xmlns="http://www.w3.org/2000/svg">
<path d="M29.587 13.9866C30.1377 13.4411 30.1377 12.5589 29.587 12.0192L21.1503 3.65625C20.746 3.2558 20.1426 3.13973 19.6153 3.35446C19.088 3.5692 18.7482 4.07991 18.7482 4.64286V9.28571H12.1863C10.6337 9.28571 9.37409 10.5335 9.37409 12.0714V13.9286C9.37409 15.4665 10.6337 16.7143 12.1863 16.7143H18.7482V21.3571C18.7482 21.9201 19.088 22.4308 19.6153 22.6455C20.1426 22.8603 20.746 22.7442 21.1503 22.3437L29.587 13.9866ZM9.37409 3.71429C10.4111 3.71429 11.2489 2.88437 11.2489 1.85714C11.2489 0.829911 10.4111 0 9.37409 0H5.62445C2.51929 0 0 2.49554 0 5.57143V20.4286C0 23.5045 2.51929 26 5.62445 26H9.37409C10.4111 26 11.2489 25.1701 11.2489 24.1429C11.2489 23.1156 10.4111 22.2857 9.37409 22.2857H5.62445C4.58744 22.2857 3.74963 21.4558 3.74963 20.4286V5.57143C3.74963 4.5442 4.58744 3.71429 5.62445 3.71429H9.37409Z" fill="white"/>
</svg>
