<svg width="27" height="30" viewBox="0 0 27 30" fill="none" xmlns="http://www.w3.org/2000/svg">
<path d="M23 0C25.2091 0 27 1.79086 27 4V26C27 28.2091 25.2091 30 23 30H4C1.79091 29.9999 1.12741e-07 28.2091 0 26V4C0 1.7909 1.79091 6.13402e-05 4 0H23ZM7 16.5C5.8955 16.5001 5 17.3955 5 18.5V22.5C5 23.6045 5.8955 24.4999 7 24.5H9C10.1046 24.5 11 23.6046 11 22.5V18.5C11 17.3954 10.1046 16.5 9 16.5H7ZM16 16.5C14.8955 16.5001 14 17.3955 14 18.5V22.5C14 23.6045 14.8955 24.4999 16 24.5H20C21.1046 24.5 22 23.6046 22 22.5V18.5C22 17.3954 21.1046 16.5 20 16.5H16ZM7 5.5C5.8955 5.50008 5.00001 6.39549 5 7.5V11.5C5 12.6045 5.8955 13.4999 7 13.5H20C21.1046 13.5 22 12.6046 22 11.5V7.5C22 6.39544 21.1046 5.5 20 5.5H7Z" fill="#ADADAD"/>
</svg>
