<svg width="30" height="33" viewBox="0 0 30 33" fill="none" xmlns="http://www.w3.org/2000/svg">
<path d="M3.09698 0.928125C3.04526 0.399609 2.59914 0 2.06897 0C1.53879 0 1.09267 0.399609 1.03448 0.92168L0.122845 9.64863C0.0387931 10.0354 0 10.4285 0 10.8217C0 13.7801 2.2694 16.21 5.17241 16.4742V30.9375C5.17241 32.0783 6.09698 33 7.24138 33C8.38578 33 9.31034 32.0783 9.31034 30.9375V16.4742C12.2134 16.21 14.4828 13.7801 14.4828 10.8217C14.4828 10.4285 14.444 10.0354 14.3599 9.64863L13.4418 0.92168C13.3901 0.399609 12.944 0 12.4138 0C11.8836 0 11.4375 0.399609 11.3858 0.928125L10.5065 9.66152C10.4677 10.0289 10.1573 10.3125 9.78879 10.3125C9.41379 10.3125 9.10345 10.0289 9.06465 9.65508L8.2694 0.941016C8.22414 0.406055 7.77802 0 7.24138 0C6.70474 0 6.25862 0.406055 6.21336 0.941016L5.4181 9.65508C5.38578 10.0289 5.06897 10.3125 4.69397 10.3125C4.31897 10.3125 4.00862 10.0289 3.97629 9.66152L3.09698 0.928125ZM27.931 0C26.8966 0 19.6552 2.0625 19.6552 11.3438V18.5625C19.6552 20.8377 21.5108 22.6875 23.7931 22.6875H25.8621V30.9375C25.8621 32.0783 26.7866 33 27.931 33C29.0754 33 30 32.0783 30 30.9375V2.0625C30 0.92168 29.0754 0 27.931 0Z" fill="#003027"/>
</svg>
