<svg width="23" height="30" viewBox="0 0 23 30" fill="none" xmlns="http://www.w3.org/2000/svg">
<path d="M11.5 0C8.32552 0 5.75 2.51953 5.75 5.625V13.125C5.75 16.2305 8.32552 18.75 11.5 18.75C14.6745 18.75 17.25 16.2305 17.25 13.125V5.625C17.25 2.51953 14.6745 0 11.5 0ZM2.875 10.7812C2.875 10.002 2.23411 9.375 1.4375 9.375C0.640885 9.375 0 10.002 0 10.7812V13.125C0 18.8613 4.39036 23.5957 10.0625 24.2871V27.1875H7.1875C6.39089 27.1875 5.75 27.8145 5.75 28.5938C5.75 29.373 6.39089 30 7.1875 30H15.8125C16.6091 30 17.25 29.373 17.25 28.5938C17.25 27.8145 16.6091 27.1875 15.8125 27.1875H12.9375V24.2871C18.6096 23.5957 23 18.8613 23 13.125V10.7812C23 10.002 22.3591 9.375 21.5625 9.375C20.7659 9.375 20.125 10.002 20.125 10.7812V13.125C20.125 17.7832 16.2617 21.5625 11.5 21.5625C6.73828 21.5625 2.875 17.7832 2.875 13.125V10.7812Z" fill="white"/>
</svg>
