<svg width="30" height="30" viewBox="0 0 30 30" fill="none" xmlns="http://www.w3.org/2000/svg">
<path d="M17.1429 2.14286C17.1429 0.957589 16.1853 0 15 0C13.8147 0 12.8571 0.957589 12.8571 2.14286V12.8571H2.14286C0.957589 12.8571 0 13.8147 0 15C0 16.1853 0.957589 17.1429 2.14286 17.1429H12.8571V27.8571C12.8571 29.0424 13.8147 30 15 30C16.1853 30 17.1429 29.0424 17.1429 27.8571V17.1429H27.8571C29.0424 17.1429 30 16.1853 30 15C30 13.8147 29.0424 12.8571 27.8571 12.8571H17.1429V2.14286Z" fill="white"/>
</svg>
