<svg width="30" height="24" viewBox="0 0 30 24" fill="none" xmlns="http://www.w3.org/2000/svg">
<path d="M1.55384 2.15893C1.96473 0.878572 3.26887 0 4.75166 0H25.2368C26.7196 0 28.0237 0.878572 28.4405 2.15893L29.834 6.45536C30.5962 8.79643 28.6371 11.1429 25.9275 11.1429C24.3614 11.1429 22.9858 10.3446 22.3069 9.15536C21.6161 10.3286 20.2465 11.1429 18.6506 11.1429C17.0665 11.1429 15.6909 10.3393 15.0002 9.16071C14.3094 10.3393 12.9338 11.1429 11.3498 11.1429C9.75383 11.1429 8.38419 10.3339 7.69341 9.15536C7.01455 10.3393 5.63895 11.1429 4.07279 11.1429C1.35732 11.1429 -0.59591 8.80179 0.166327 6.45536L1.55384 2.15893ZM5.46625 17.1429H24.5222V13.5857C24.9747 13.6714 25.4452 13.7143 25.9216 13.7143C26.7731 13.7143 27.589 13.575 28.3334 13.3286V21.4286C28.3334 22.8482 27.053 24 25.475 24H4.51346C2.93539 24 1.65507 22.8482 1.65507 21.4286V13.3286C2.39944 13.575 3.20932 13.7143 4.06683 13.7143C4.54919 13.7143 5.01368 13.6714 5.46625 13.5857V17.1429Z" fill="#002B24"/>
</svg>
