<svg width="50" height="50" viewBox="0 0 50 50" fill="none" xmlns="http://www.w3.org/2000/svg">
<rect width="50" height="50" rx="25" fill="#00483C"/>
<path d="M36.1281 13.0815C36.6393 12.8989 37.2028 13.0293 37.5888 13.4102C37.9749 13.791 38.1001 14.3597 37.9175 14.871L28.6313 40.7948C28.3705 41.52 27.6871 42 26.9202 42C26.1794 42 25.5116 41.5513 25.2351 40.8679L21.8858 32.6248C21.6511 32.051 21.7554 31.3936 22.1571 30.9241L27.0871 25.06C27.3532 24.7418 27.3323 24.2774 27.0402 23.9853C26.748 23.6931 26.2785 23.6723 25.9655 23.9383L20.1016 28.8581C19.6269 29.2546 18.9748 29.3589 18.4009 29.1294L10.1321 25.7643C9.44866 25.4878 9 24.82 9 24.0792C9 23.3123 9.47996 22.6288 10.2051 22.368L36.1281 13.0815Z" fill="white"/>
</svg>
