<svg width="30" height="24" viewBox="0 0 30 24" fill="none" xmlns="http://www.w3.org/2000/svg">
<path d="M6.17947 0.503572C5.5286 -0.166071 4.47159 -0.166071 3.82073 0.503572L0.488294 3.93214C0.00925678 4.425 -0.13133 5.15893 0.129016 5.80179C0.389362 6.44464 0.998573 6.85714 1.67027 6.85714H3.33648V18.8571C3.33648 21.6964 5.57546 24 8.33513 24H15C15.9216 24 16.6662 23.2339 16.6662 22.2857C16.6662 21.3375 15.9216 20.5714 15 20.5714H8.33513C7.41351 20.5714 6.66892 19.8054 6.66892 18.8571V6.85714H8.33513C9.00683 6.85714 9.61604 6.43929 9.87638 5.79643C10.1367 5.15357 9.99094 4.41964 9.51711 3.92679L6.18467 0.498214L6.17947 0.503572ZM23.8205 23.4964C24.4714 24.1661 25.5284 24.1661 26.1793 23.4964L29.5117 20.0679C29.9907 19.575 30.1313 18.8411 29.871 18.1982C29.6106 17.5554 29.0014 17.1429 28.3297 17.1429H26.6635V5.14286C26.6635 2.30357 24.4245 0 21.6649 0H15C14.0784 0 13.3338 0.766071 13.3338 1.71429C13.3338 2.6625 14.0784 3.42857 15 3.42857H21.6649C22.5865 3.42857 23.3311 4.19464 23.3311 5.14286V17.1429H21.6649C20.9932 17.1429 20.384 17.5607 20.1236 18.2036C19.8633 18.8464 20.0091 19.5804 20.4829 20.0732L23.8153 23.5018L23.8205 23.4964Z" fill="black"/>
</svg>
