<svg width="25" height="30" viewBox="0 0 25 30" fill="none" xmlns="http://www.w3.org/2000/svg">
<path d="M12.5 14.2857C13.447 14.2857 14.3848 14.101 15.2597 13.742C16.1347 13.383 16.9297 12.8569 17.5993 12.1936C18.269 11.5303 18.8002 10.7429 19.1626 9.87631C19.525 9.0097 19.7115 8.08087 19.7115 7.14286C19.7115 6.20484 19.525 5.27602 19.1626 4.4094C18.8002 3.54279 18.269 2.75537 17.5993 2.09209C16.9297 1.42882 16.1347 0.90268 15.2597 0.543718C14.3848 0.184755 13.447 -1.39775e-08 12.5 0C11.553 -1.39775e-08 10.6152 0.184755 9.74026 0.543718C8.86532 0.90268 8.07033 1.42882 7.40067 2.09209C6.73102 2.75537 6.19982 3.54279 5.83741 4.4094C5.47499 5.27602 5.28846 6.20484 5.28846 7.14286C5.28846 8.08087 5.47499 9.0097 5.83741 9.87631C6.19982 10.7429 6.73102 11.5303 7.40067 12.1936C8.07033 12.8569 8.86532 13.383 9.74026 13.742C10.6152 14.101 11.553 14.2857 12.5 14.2857ZM10.7151 17.619C4.79567 17.619 0 22.369 0 28.2321C0 29.2083 0.799279 30 1.78486 30H23.2151C24.2007 30 25 29.2083 25 28.2321C25 22.369 20.2043 17.619 14.2849 17.619H10.7151Z" fill="black"/>
</svg>
