<svg xmlns="http://www.w3.org/2000/svg" version="1.1" xmlns:xlink="http://www.w3.org/1999/xlink" width="64" height="64"><svg width="64" height="64" viewBox="0 0 64 64" fill="none" xmlns="http://www.w3.org/2000/svg">
<g clip-path="url(#clip0_84_387)">
<path d="M18.1702 0.00152343H45.8297C48.8881 0.00152343 53.9836 -0.0964856 56.7297 1.19299C59.3968 2.44537 61.5544 4.60302 62.8068 7.2701C64.0963 10.0162 63.9983 15.1117 63.9983 18.1701V45.8296C63.9983 48.8879 64.0962 53.9835 62.8068 56.7296C61.5544 59.3966 59.3968 61.5543 56.7297 62.8067C53.9836 64.0961 48.8881 63.9981 45.8297 63.9981H18.1702C15.1119 63.9981 10.0163 64.0961 7.27026 62.8066C4.60318 61.5543 2.44557 59.3966 1.19319 56.7295C-0.0962881 53.9835 0.00170582 48.8879 0.00170582 45.8296V18.1701C0.00170582 15.1117 -0.0962098 10.0162 1.19319 7.27009C2.44557 4.60302 4.6032 2.44537 7.27026 1.19299C10.0163 -0.0964856 15.1119 0.00152343 18.1702 0.00152343Z" fill="#EDB931"></path>
<path d="M32.0001 3.45068C31.8562 3.45532 31.7124 3.46415 31.569 3.47715C31.0171 3.56627 30.5069 3.82629 30.1105 4.2206C29.8411 4.49158 29.6329 4.81721 29.5 5.17551C29.3671 5.53381 29.3126 5.91644 29.3402 6.29759C29.3341 6.23798 29.33 6.17818 29.3279 6.1183V11.1467L27.1675 8.98637C26.8945 8.71334 26.5655 8.50272 26.2032 8.36903C25.841 8.23534 25.4541 8.18175 25.0691 8.21195C24.4346 8.26171 23.8387 8.53633 23.3886 8.98637C23.1405 9.2345 22.9436 9.52908 22.8094 9.85328C22.6751 10.1775 22.606 10.525 22.606 10.8759C22.606 11.2268 22.6751 11.5743 22.8094 11.8985C22.9436 12.2227 23.1405 12.5173 23.3886 12.7654C23.3897 12.7665 23.3907 12.7675 23.3918 12.7685L26.7279 16.1047C26.7424 16.1193 26.757 16.1339 26.7716 16.1484L26.9556 16.3324H26.964C28.3356 17.5983 30.1336 18.3012 32 18.3012C33.8665 18.3012 35.6645 17.5983 37.0361 16.3324H37.0444L37.2285 16.1484C37.2431 16.1339 37.2576 16.1193 37.2721 16.1047L40.6083 12.7685C40.6093 12.7675 40.6104 12.7665 40.6114 12.7654C40.8596 12.5173 41.0564 12.2227 41.1907 11.8985C41.325 11.5743 41.3941 11.2268 41.3941 10.8759C41.3941 10.525 41.325 10.1775 41.1907 9.85328C41.0564 9.52908 40.8596 9.2345 40.6114 8.98637C40.1614 8.53633 39.5654 8.26171 38.9309 8.21195C38.546 8.18175 38.1591 8.23534 37.7968 8.36903C37.4345 8.50272 37.1056 8.71334 36.8325 8.98637L34.6722 11.1467V6.1183C34.6701 6.17818 34.666 6.23798 34.6599 6.29759C34.6875 5.91644 34.633 5.5338 34.5001 5.1755C34.3672 4.81721 34.159 4.49158 33.8896 4.2206C33.4932 3.82629 32.983 3.56627 32.4311 3.47715C32.2877 3.46415 32.1439 3.45532 32.0001 3.45068Z" fill="#00483C"></path>
<path d="M25.5339 45.3663C24.9078 45.3664 24.3075 45.6151 23.8648 46.0578C23.4221 46.5005 23.1734 47.1008 23.1733 47.7268C23.1733 50.8766 24.8588 53.7968 27.5865 55.3716C30.3143 56.9465 33.686 56.9465 36.4137 55.3716C39.1415 53.7968 40.8269 50.8766 40.8269 47.7268C40.8268 47.1008 40.5781 46.5005 40.1354 46.0578C39.6928 45.6151 39.0924 45.3664 38.4664 45.3663C38.1563 45.3663 37.8493 45.4273 37.5628 45.5458C37.2764 45.6644 37.0161 45.8383 36.7968 46.0575C36.5775 46.2767 36.4035 46.5369 36.2848 46.8234C36.1662 47.1098 36.105 47.4168 36.105 47.7268C36.105 49.1973 35.3258 50.5468 34.0523 51.2821C32.7789 52.0173 31.2205 52.0173 29.947 51.2821C28.6736 50.5468 27.8944 49.1973 27.8944 47.7268C27.8943 47.1008 27.6456 46.5005 27.2029 46.0578C26.7602 45.6151 26.1599 45.3664 25.5339 45.3663Z" fill="#002B24"></path>
<path d="M11.793 18.3011C10.5002 18.3011 9.2074 18.7944 8.22101 19.7808C7.77499 20.2268 7.42974 20.7355 7.18541 21.2784C7.12352 21.4473 7.06465 21.617 7.00855 21.7874C6.95629 21.9462 6.90658 22.1056 6.85926 22.2657C5.2231 27.8044 6.59047 34.0415 10.9616 38.4126C16.3651 43.816 24.6203 44.6296 30.8824 40.8531C31.5158 40.471 32.4838 40.471 33.1173 40.8531C39.3794 44.6297 47.6348 43.8163 53.0383 38.4129C57.4094 34.0418 58.7768 27.8044 57.1406 22.2657C57.0933 22.1056 57.0436 21.9462 56.9913 21.7874C56.9352 21.617 56.8763 21.4473 56.8145 21.2784C56.5701 20.7355 56.2249 20.2268 55.7789 19.7808C53.8061 17.808 50.6076 17.808 48.6348 19.7808L34.1295 34.286C33.5648 34.8508 32.7988 35.1681 32.0001 35.1681C31.2014 35.1681 30.4354 34.8508 29.8706 34.2861L15.3651 19.7808C14.3787 18.7944 13.0859 18.3011 11.793 18.3011Z" fill="#002B24"></path>
</g>
<defs>
<clipPath id="SvgjsClipPath1005">
<rect width="64" height="64" fill="white"></rect>
</clipPath>
</defs>
</svg><style>@media (prefers-color-scheme: light) { :root { filter: none; } }
@media (prefers-color-scheme: dark) { :root { filter: none; } }
</style></svg>